#File written by LIBRIZOMUV. Compilation :Jul  1 2019,12:46:38
mtllib BR_room:mtl
#begin vertices
v -1097.383 0 1097.383
v 1097.383 0 1097.383
v -1097.383 0 -1097.383
v 1097.383 0 -1097.383
v -1097.383 799.7341 1097.383
v 1097.383 799.734 1097.383
v -1097.383 799.7341 -1097.383
v 1097.383 799.734 -1097.383
v -1097.383 549.0622 1097.383
v -1097.383 549.0622 -1097.383
v 1097.383 549.0622 -1097.383
v 1097.383 549.0622 1097.383
v -1097.383 799.7341 307.2364
v -1097.383 799.7341 -307.2364
v -1097.383 549.0622 -307.2364
v -1097.383 549.0622 307.2364
v -1097.383 0 -307.2364
v -1097.383 0 307.2364
v 307.2364 0 307.2364
v 307.2364 0 -307.2364
v -307.2364 0 -307.2364
v -307.2364 0 307.2364
v 1097.383 0 307.2364
v 1097.383 0 -307.2364
v 1097.383 549.0622 -307.2364
v 1097.383 549.0622 307.2364
v 1097.383 799.734 -307.2364
v 1097.383 799.734 307.2364
v -307.2364 799.734 -1097.383
v 307.2364 799.734 -1097.383
v 307.2364 549.0622 -1097.383
v -307.2364 549.0622 -1097.383
v 307.2364 0 -1097.383
v -307.2364 0 -1097.383
v 307.2364 0 1097.383
v -307.2364 0 1097.383
v 307.2364 549.0622 1097.383
v -307.2364 549.0622 1097.383
v 307.2364 799.734 1097.383
v -307.2364 799.734 1097.383
#end vertices

#begin 64 textures vertices 
vt 0.03033297 0.55215 0
vt 0.03097576 0.5537278 0
vt 0.5267087 0.55215 0
vt 0.4983289 0.001953125 0
vt 0.5273515 0.7345984 0
vt 0.5262665 0.7335417 0
vt 0.5267087 0.7330206 0
vt 0.5267087 0.7330206 0
vt 0.03033297 0.6763278 0
vt 0.5267087 0.6763278 0
vt 0.02989073 0.6768489 0
vt 0.03097576 0.6779056 0
vt 0.2090352 0.7330206 0
vt 0.3480065 0.7330206 0
vt 0.3480065 0.6763278 0
vt 0.2090352 0.6763278 0
vt 0.3196267 0.4983289 0
vt 0.1806553 0.4983289 0
vt 0.1806553 0.1806553 0
vt 0.3196267 0.1806553 0
vt 0.3196267 0.3196267 0
vt 0.1806553 0.3196267 0
vt 0.1806553 0.001953125 0
vt 0.208593 0.5526711 0
vt 0.208593 0.6768489 0
vt 0.3475643 0.6768489 0
vt 0.208593 0.7335417 0
vt 0.3475643 0.7335417 0
vt 0.2090352 0.7330206 0
vt 0.3480065 0.7330206 0
vt 0.3480065 0.6763278 0
vt 0.2090352 0.6763278 0
vt 0.4983289 0.1806553 0
vt 0.4983289 0.3196267 0
vt 0.209678 0.5537278 0
vt 0.001953125 0.3196267 0
vt 0.209678 0.6779056 0
vt 0.3486493 0.6779056 0
vt 0.209678 0.7345984 0
vt 0.3486493 0.7345984 0
vt 0.3480065 0.55215 0
vt 0.3480065 0.55215 0
vt 0.03033297 0.6763278 0
vt 0.2090352 0.55215 0
vt 0.3486493 0.5537278 0
vt 0.2090352 0.55215 0
vt 0.3475643 0.5526711 0
vt 0.5262665 0.6768489 0
vt 0.02989073 0.5526711 0
vt 0.5267087 0.55215 0
vt 0.3196267 0.001953125 0
vt 0.03097576 0.7345984 0
vt 0.03033297 0.7330206 0
vt 0.02989073 0.7335417 0
vt 0.5267087 0.6763278 0
vt 0.4983289 0.4983289 0
vt 0.03033297 0.55215 0
vt 0.001953125 0.001953125 0
vt 0.5262665 0.5526711 0
vt 0.001953125 0.1806553 0
vt 0.03033297 0.7330206 0
vt 0.5273515 0.6779056 0
vt 0.001953125 0.4983289 0
vt 0.5273515 0.5537278 0
#end 64 textures vertices 

#begin 186 normals 
vn 1 0 0
vn 1 0 0
vn 1 0 0
vn 1 0 0
vn 1 0 0
vn 1 0 0
vn 0 1 0
vn 0 1 0
vn 0 1 0
vn 0 1 0
vn 0 1 0
vn 0 1 0
vn 0 1 0
vn 0 1 0
vn 0 1 0
vn 0 1 0
vn 0 1 0
vn 0 1 0
vn 0 1 0
vn 0 1 0
vn 0 1 0
vn 0 1 0
vn 0 1 0
vn 0 1 0
vn 0 1 0
vn 0 1 0
vn 0 1 0
vn 0 1 0
vn 0 1 0
vn 0 1 0
vn -1 0 0
vn -1 0 0
vn -1 0 0
vn -1 0 0
vn -1 0 0
vn -1 0 0
vn 0 0 1
vn 0 0 1
vn 0 0 1
vn 0 0 1
vn 0 0 1
vn 0 0 1
vn 0 0 -1
vn 0 0 -1
vn 0 0 -1
vn 0 0 -1
vn 0 0 -1
vn 0 0 -1
vn 0 1 0
vn 0 1 0
vn 0 1 0
vn 0 1 0
vn 0 1 0
vn 0 1 0
vn 0 0 -1
vn 0 0 -1
vn 0 0 -1
vn 0 0 -1
vn 0 0 -1
vn 0 0 -1
vn 1 0 0
vn 1 0 0
vn 1 0 0
vn 1 0 0
vn 1 0 0
vn 1 0 0
vn -1 0 0
vn -1 0 0
vn -1 0 0
vn -1 0 0
vn -1 0 0
vn -1 0 0
vn 0 0 1
vn 0 0 1
vn 0 0 1
vn 0 0 1
vn 0 0 1
vn 0 0 1
vn 1 0 0
vn 1 0 0
vn 1 0 0
vn 1 0 0
vn 1 0 0
vn 1 0 0
vn 0 0 1
vn 0 0 1
vn 0 0 1
vn 0 0 1
vn 0 0 1
vn 0 0 1
vn -1 0 0
vn -1 0 0
vn -1 0 0
vn -1 0 0
vn -1 0 0
vn -1 0 0
vn 0 0 -1
vn 0 0 -1
vn 0 0 -1
vn 0 0 -1
vn 0 0 -1
vn 0 0 -1
vn 1 0 0
vn 1 0 0
vn 1 0 0
vn 1 0 0
vn 1 0 0
vn 1 0 0
vn 1 0 0
vn 1 0 0
vn 1 0 0
vn 1 0 0
vn 1 0 0
vn 1 0 0
vn 0 1 0
vn 0 1 0
vn 0 1 0
vn 0 1 0
vn 0 1 0
vn 0 1 0
vn -1 0 0
vn -1 0 0
vn -1 0 0
vn -1 0 0
vn -1 0 0
vn -1 0 0
vn -1 0 0
vn -1 0 0
vn -1 0 0
vn -1 0 0
vn -1 0 0
vn -1 0 0
vn 0 0 1
vn 0 0 1
vn 0 0 1
vn 0 0 1
vn 0 0 1
vn 0 0 1
vn 0 0 1
vn 0 0 1
vn 0 0 1
vn 0 0 1
vn 0 0 1
vn 0 0 1
vn 0 1 0
vn 0 1 0
vn 0 1 0
vn 0 1 0
vn 0 1 0
vn 0 1 0
vn 0 1 0
vn 0 1 0
vn 0 1 0
vn 0 1 0
vn 0 1 0
vn 0 1 0
vn 0 0 -1
vn 0 0 -1
vn 0 0 -1
vn 0 0 -1
vn 0 0 -1
vn 0 0 -1
vn 0 0 -1
vn 0 0 -1
vn 0 0 -1
vn 0 0 -1
vn 0 0 -1
vn 0 0 -1
vn 0 1 0
vn 0 1 0
vn 0 1 0
vn 0 1 0
vn 0 1 0
vn 0 1 0
vn 1 0 0
vn 1 0 0
vn 1 0 0
vn 1 0 0
vn 1 0 0
vn 1 0 0
vn 0 0 1
vn 0 0 1
vn 0 0 1
vn 0 0 1
vn 0 0 1
vn 0 0 1
#end 186 normals 

#begin 62 faces
usemtl pPlane9SG
g pPlane9
f 14/14/1 13/13/2 15/15/3 
f 15/15/4 13/13/5 16/16/6 
f 17/17/7 18/18/8 21/21/9 
f 21/21/10 18/18/11 22/22/12 
f 19/19/13 22/22/14 35/60/15 
f 35/60/16 22/22/17 36/36/18 
f 20/20/19 19/19/20 24/51/21 
f 24/51/22 19/19/23 23/23/24 
f 21/21/25 20/20/26 34/34/27 
f 34/34/28 20/20/29 33/33/30 
f 25/25/31 26/26/32 27/27/33 
f 27/27/34 26/26/35 28/28/36 
f 30/30/37 29/29/38 31/31/39 
f 31/31/40 29/29/41 32/32/42 
f 37/37/43 38/38/44 39/39/45 
f 39/39/46 38/38/47 40/40/48 
f 33/33/49 20/20/50 4/4/51 
f 4/4/52 20/20/53 24/51/54 
f 37/37/55 39/39/56 12/12/57 
f 12/12/58 39/39/59 6/52/60 
f 10/10/61 7/7/62 15/15/63 
f 15/15/64 7/7/65 14/14/66 
f 25/25/67 27/27/68 11/11/69 
f 11/11/70 27/27/71 8/54/72 
f 11/55/73 8/8/74 31/31/75 
f 31/31/76 8/8/77 30/30/78 
f 3/3/79 10/10/80 17/42/81 
f 17/42/82 10/10/83 15/15/84 
f 4/50/85 11/55/86 33/41/87 
f 33/41/88 11/55/89 31/31/90 
f 11/11/91 4/49/92 25/25/93 
f 25/25/94 4/49/95 24/24/96 
f 12/12/97 2/2/98 37/37/99 
f 37/37/100 2/2/101 35/35/102 
f 16/16/103 13/13/104 9/9/105 
f 9/9/106 13/13/107 5/61/108 
f 18/46/109 16/16/110 1/1/111 
f 1/1/112 16/16/113 9/9/114 
f 19/19/115 35/60/116 23/23/117 
f 23/23/118 35/60/119 2/58/120 
f 26/26/121 23/47/122 12/48/123 
f 12/48/124 23/47/125 2/59/126 
f 6/6/127 28/28/128 12/48/129 
f 12/48/130 28/28/131 26/26/132 
f 32/32/133 29/29/134 10/43/135 
f 10/43/136 29/29/137 7/53/138 
f 34/44/139 32/32/140 3/57/141 
f 3/57/142 32/32/143 10/43/144 
f 17/17/145 21/21/146 3/56/147 
f 3/56/148 21/21/149 34/34/150 
f 1/63/151 36/36/152 18/18/153 
f 18/18/154 36/36/155 22/22/156 
f 38/38/157 36/45/158 9/62/159 
f 9/62/160 36/45/161 1/64/162 
f 5/5/163 40/40/164 9/62/165 
f 9/62/166 40/40/167 38/38/168 
f 19/19/169 20/20/170 22/22/171 
f 22/22/172 20/20/173 21/21/174 
f 15/15/175 16/16/176 17/42/177 
f 17/42/178 16/16/179 18/46/180 
f 34/44/181 33/41/182 32/32/183 
f 32/32/184 33/41/185 31/31/186 
#end 62 faces

#begin properties
#ZOMPROPERTIES_02 table {Mesh table {SymPlane table {Point vector3d 0 0 0 Normal vector3d 1 0 0 Threshold double 0.01 Enabled bool false EdgeID int -1 SymEdgeID int -1 UPos double 0.5 LocalMode bool false } RootGroup CSubMeshGroup {Children table {Tile_0_0 CSubMeshGroup {Children table {G0 CSubMeshGroup {Children table {} BBoxUV box3d 0.03033297 0.5267087 0.55215 0.7330206 0 0 BBox3D box3d 0 0 0 0 0 0 AreaUV double 0.1795596 Area3D double 0 IsRoot bool false TopoStable table {Selected bool false Box box3d 0.03033297 0.5267087 0.55215 0.7330206 0 0 U int 0 V int 0 NU int 0 NV int 0 Tiling vector3d 1 1 1 TileRatioMode string "1:1" Pack table {Stacked bool true } } IsTile bool false PolyIDs ints { 0 1 34 35 37 36 59 58 27 20 26 21 12 13 44 45 47 46 60 61 29 24 28 25 } } } BBoxUV box3d 0 0 0 0 0 0 BBox3D box3d 0 0 0 0 0 0 AreaUV double 0.5709937 Area3D double 0 IsRoot bool false TopoStable table {Selected bool false Box box3d 0 1 0 1 0 1 U int 0 V int 0 NU int 0 NV int 0 Tiling vector3d 1 1 1 TileRatioMode string "1:1" } IsTile bool true PolyIDs ints { 2 3 51 5 4 56 6 7 17 16 9 8 49 38 39 50 57 48 10 11 43 42 40 41 22 23 30 31 14 15 55 54 52 53 18 19 32 33 } } } BBoxUV box3d 0 0 0 0 0 0 BBox3D box3d 0 0 0 0 0 0 AreaUV double 0 Area3D double 0 IsRoot bool true TopoStable table {Selected bool false Box box3d 0 1 0 1 0 1 U int 0 V int 0 NU int 1 NV int 1 Tiling vector3d 1 1 1 TileRatioMode string "1:1" Pack table {Rotate table {Mode int 2 Min double 0 Max double 180 Step double 0 } SpacingSize double 0.00390625 MarginSize double 0.001953125 Resolution int 200 Scaling table {Mode int 0 } LayoutScalingMode int 2 MaxMutations int 1 } } IsTile bool false PolyIDs ints { } } Maps table {Density table {PrimType string "Polygon" Size int 1 DefaultValue double 1 ScaleType string "Log" MinValue double 0.1 MaxValue double 4 Data doubles { r 62 1 } } Pin table {PrimType string "Vertex" Size int 1 DefaultValue double 0 ScaleType string "Normalized" MinValue double 0 MaxValue double 1 Data doubles { r 64 0 } } Protect table {PrimType string "Vertex" Size int 1 DefaultValue double 0 ScaleType string "Normalized" MinValue double -1 MaxValue double 1 Data doubles { r 64 0 } } } } }
#end properties

#begin 0 fatal error vertex (that RizomUV cannot handle)
#end 0 fatal error vertex (that RizomUV cannot handle)

#begin 0 error vertex
#end 0 error vertex
